<svg width="43" height="34" viewBox="0 0 43 34" fill="none" xmlns="http://www.w3.org/2000/svg">
<path d="M42.8571 10.8578V29.8469C42.8571 30.8992 42.4825 31.8001 41.7331 32.5494C40.9837 33.2988 40.0829 33.6735 39.0306 33.6735H3.82654C2.77424 33.6735 1.8734 33.2988 1.12404 32.5494C0.374681 31.8001 0 30.8992 0 29.8469V10.8578C0.701531 11.639 1.5067 12.3326 2.4155 12.9385C8.18719 16.8607 12.1492 19.611 14.3016 21.1894C15.2105 21.859 15.9479 22.3812 16.5139 22.7559C17.0799 23.1306 17.8332 23.5132 18.7739 23.9039C19.7146 24.2945 20.5915 24.4898 21.4046 24.4898H21.4525C22.2656 24.4898 23.1425 24.2945 24.0832 23.9039C25.0239 23.5132 25.7773 23.1306 26.3433 22.7559C26.9093 22.3812 27.6467 21.859 28.5555 21.1894C31.266 19.2283 35.236 16.478 40.4656 12.9385C41.3744 12.3167 42.1715 11.6231 42.8571 10.8578ZM42.8571 3.82654C42.8571 5.08611 42.4665 6.28987 41.6853 7.43782C40.904 8.58577 39.9314 9.56632 38.7675 10.3795C32.7726 14.5408 29.0418 17.1317 27.5749 18.1521C27.4154 18.2638 27.0766 18.5069 26.5585 18.8815C26.0403 19.2562 25.6099 19.5592 25.2671 19.7903C24.9243 20.0215 24.5097 20.2806 24.0234 20.5676C23.5371 20.8546 23.0788 21.0698 22.6483 21.2133C22.2178 21.3569 21.8192 21.4287 21.4525 21.4287H21.4046C21.038 21.4287 20.6394 21.3569 20.2089 21.2133C19.7784 21.0697 19.32 20.8545 18.8337 20.5676C18.3474 20.2806 17.9329 20.0215 17.5901 19.7903C17.2473 19.5591 16.8168 19.2562 16.2986 18.8815C15.7805 18.5068 15.4416 18.2637 15.2822 18.1521C13.8313 17.1317 11.7427 15.6768 9.01625 13.7875C6.28984 11.8981 4.65561 10.7621 4.11354 10.3795C3.125 9.70982 2.19228 8.78906 1.31537 7.61718C0.438457 6.4453 0 5.35713 0 4.35268C0 3.10906 0.330836 2.0727 0.992507 1.24361C1.65418 0.414535 2.59885 0 3.82654 0H39.0306C40.067 0 40.9638 0.374678 41.7211 1.12404C42.4785 1.87339 42.8571 2.77423 42.8571 3.82654Z" fill="#6B6B6B"/>
</svg>
