<svg width="40" height="40" viewBox="0 0 40 40" fill="none" xmlns="http://www.w3.org/2000/svg">
<path d="M37.7778 22.2223H2.22222C1.00741 22.2223 0 21.2149 0 20.0001C0 18.7852 1.00741 17.7778 2.22222 17.7778L37.7778 17.7778C38.9926 17.7778 40 18.7852 40 20.0001C40 21.2149 38.9926 22.2223 37.7778 22.2223Z" fill="white"/>
<path d="M20.0001 40C18.7852 40 17.7778 38.9926 17.7778 37.7778L17.7778 2.22222C17.7778 1.00741 18.7852 0 20.0001 0C21.2149 0 22.2223 1.00741 22.2223 2.22222V37.7778C22.2223 38.9926 21.2149 40 20.0001 40Z" fill="white"/>
</svg>
